HIERARCHY
ROOT root
{
	OFFSET	0	13.1	24.9
	CHANNELS 6  Xposition Yposition Zposition Xrotation Yrotation Zrotation
	JOINT spine_1
	{
		OFFSET	0	9.99999	0
		CHANNELS 3  Xrotation Yrotation Zrotation
		JOINT spine_2
		{
			OFFSET	0	112	-10
			CHANNELS 3  Xrotation Yrotation Zrotation
			JOINT spine_3
			{
				OFFSET	0	206.5	19.3
				CHANNELS 3  Xrotation Yrotation Zrotation
				JOINT spine_4
				{
					OFFSET	0	110.4	14.6
					CHANNELS 3  Xrotation Yrotation Zrotation
					JOINT neck_1
					{
						OFFSET	0	71.8	-50.3
						CHANNELS 3  Xrotation Yrotation Zrotation
						JOINT neck_2
						{
							OFFSET	0	86.2	-25.8
							CHANNELS 3  Xrotation Yrotation Zrotation
							JOINT head_ee
							{
								OFFSET	0	179.8	-8.7
								CHANNELS 3  Xrotation Yrotation Zrotation
								End Site
								{
									OFFSET	1	0	0
								}
							}
						}
					}
					JOINT left_clavicle
					{
						OFFSET	-43.2	22.4	-70.8
						CHANNELS 3  Xrotation Yrotation Zrotation
						JOINT left_shoulder
						{
							OFFSET	-93.9	-5.79999	48.7
							CHANNELS 3  Xrotation Yrotation Zrotation
							JOINT left_elbow
							{
								OFFSET	-291.4	-30.8	15.2
								CHANNELS 3  Xrotation Yrotation Zrotation
								JOINT left_lowarm_twist
								{
									OFFSET	-110.7	-3.89999	13.6
									CHANNELS 3  Xrotation Yrotation Zrotation
									JOINT left_hand
									{
										OFFSET	-110.7	-3.89999	13.6
										CHANNELS 3  Xrotation Yrotation Zrotation
										JOINT left_ee
										{
											OFFSET	-80.8	-5.10001	12.1
											CHANNELS 3  Xrotation Yrotation Zrotation
											End Site
											{
												OFFSET	1	0	0
											}
										}
									}
								}
							}
						}
					}
					JOINT right_clavicle
					{
						OFFSET	43.2	22.4	-70.8
						CHANNELS 3  Xrotation Yrotation Zrotation
						JOINT right_shoulder
						{
							OFFSET	93.9	-5.79999	48.7
							CHANNELS 3  Xrotation Yrotation Zrotation
							JOINT right_elbow
							{
								OFFSET	291.4	-30.8	15.2
								CHANNELS 3  Xrotation Yrotation Zrotation
								JOINT right_lowarm_twist
								{
									OFFSET	110.7	-3.89999	13.6
									CHANNELS 3  Xrotation Yrotation Zrotation
									JOINT right_hand
									{
										OFFSET	110.7	-3.89999	13.6
										CHANNELS 3  Xrotation Yrotation Zrotation
										JOINT right_ee
										{
											OFFSET	80.8	-5.10001	12.1
											CHANNELS 3  Xrotation Yrotation Zrotation
											End Site
											{
												OFFSET	1	0	0
											}
										}
									}
								}
							}
						}
					}
				}
			}
		}
	}
	JOINT left_hip
	{
		OFFSET	-82.8	-127.5	0.300001
		CHANNELS 3  Xrotation Yrotation Zrotation
		JOINT left_knee
		{
			OFFSET	-28.2	-396.7	2.2
			CHANNELS 3  Xrotation Yrotation Zrotation
			JOINT left_ankle
			{
				OFFSET	-11.7	-411.3	35.4
				CHANNELS 3  Xrotation Yrotation Zrotation
				JOINT left_toes
				{
					OFFSET	0	-60	-88.6
					CHANNELS 3  Xrotation Yrotation Zrotation
					JOINT left_foot_ee
					{
						OFFSET	-22.5	-16.5	-42.2
						CHANNELS 3  Xrotation Yrotation Zrotation
						End Site
						{
							OFFSET	1	0	0
						}
					}
				}
			}
		}
	}
	JOINT right_hip
	{
		OFFSET	82.8	-127.5	0.300001
		CHANNELS 3  Xrotation Yrotation Zrotation
		JOINT right_knee
		{
			OFFSET	28.2	-396.7	2.2
			CHANNELS 3  Xrotation Yrotation Zrotation
			JOINT right_ankle
			{
				OFFSET	11.7	-411.3	35.4
				CHANNELS 3  Xrotation Yrotation Zrotation
				JOINT right_toes
				{
					OFFSET	0	-60	-88.6
					CHANNELS 3  Xrotation Yrotation Zrotation
					JOINT right_foot_ee
					{
						OFFSET	22.5	-16.5	-42.2
						CHANNELS 3  Xrotation Yrotation Zrotation
						End Site
						{
							OFFSET	1	0	0
						}
					}
				}
			}
		}
	}
}
MOTION
Frames: 14
Frame Time: 0.02
1138.34814671 731.922 -1731.95037971 2.85844293232 24.6256713315 -4.11992499288 1.12361 0.545781 2.85063 1.12806 0.363359 2.87955 1.14742 -0.192022 2.89601 1.13581 0.267563 2.89002 1.5793 16.3431 -9.61542 3.57592 36.7218 -9.80011 -0.0 0.0 -0.0 -6.59917 22.7101 -6.63767 -13.4443 -8.3388 74.9608 0.614766 -16.9376 0.0915358 -0.64788 -0.0232777 0.0794642 1.37495 11.9794 13.7835 -0.0 0.0 -0.0 13.3629 23.7273 -26.7691 -3.57308 32.7422 -64.8044 0.862497 23.1347 -0.176536 45.1234 0.642222 5.58156 -0.217253 -12.6312 -3.82826 0.0 0.0 0.0 18.3597 10.7622 -7.0683 -59.0465 -2.09791 8.41955 22.3663 20.7511 -3.10966 -26.0522 0.0 0.0 -0.0 0.0 -0.0 7.72809 0.491571 -4.16632 -16.7645 -0.320128 -2.54359 28.4605 8.88715 3.85519 37.6972 -0.0 -0.0 0.0 0.0 0.0 
1125.1323642 727.79 -1742.42505634 2.57255306573 26.6540986052 -3.44416293498 1.30284 0.455841 2.69865 1.30685 0.28326 2.72217 1.32103 -0.232462 2.72697 1.31071 0.200965 2.72947 1.65235 16.5675 -9.72461 3.72299 37.1961 -9.95933 -0.0 0.0 -0.0 -7.11092 22.9243 -7.30583 -13.8028 -9.4133 74.9691 0.590088 -16.2944 0.0844789 0.32053 0.0111832 -0.0394084 1.56515 13.0799 15.4135 -0.0 0.0 -0.0 13.4267 24.0549 -26.8842 -3.9084 32.7947 -62.5856 0.963118 25.5054 -0.217984 45.1957 0.64673 5.58964 0.320002 -11.0611 -6.61869 0.0 0.0 0.0 20.3558 10.375 -7.98944 -61.1499 -2.32542 8.6509 21.8083 19.0837 -3.01943 -27.1298 0.0 0.0 -0.0 0.0 -0.0 6.47291 -2.10897 -4.1436 -15.793 -0.322012 -2.39455 32.0135 8.01703 4.22291 38.4424 -0.0 -0.0 0.0 0.0 0.0 
1108.18456544 729.468 -1751.98918713 3.00334617705 28.4940133801 -3.22204118021 1.25974 0.0908403 2.68644 1.26375 -0.0802263 2.68678 1.26042 -0.586005 2.62337 1.25085 -0.164495 2.68294 0.112264 15.984 -8.83942 1.67387 35.6138 -8.35063 -0.0 0.0 -0.0 -7.24213 24.165 -7.08381 -15.4383 -10.0434 74.7379 0.6739 -18.4606 0.109515 1.15158 0.0391488 -0.141865 1.56931 13.2447 15.4974 -0.0 0.0 -0.0 13.1455 20.6993 -26.5328 -3.28682 32.6624 -62.3944 1.0825 28.2011 -0.271923 45.115 0.641699 5.58062 0.7677 -6.18456 -7.61982 0.0 0.0 0.0 21.0537 12.5613 -9.73018 -59.7165 -2.16945 8.49414 22.5831 18.7747 -3.1122 -27.6464 0.0 0.0 -0.0 0.0 -0.0 4.45704 -2.79154 -4.14447 -15.5509 -0.322088 -2.35742 32.48 6.11477 4.23902 38.8593 -0.0 -0.0 0.0 0.0 0.0 
1091.71926496 728.34 -1749.31758024 2.35136125338 31.0586545313 -3.02498588867 1.4253 0.189359 2.60353 1.42907 0.0233634 2.6103 1.43047 -0.462089 2.5692 1.42126 -0.0506759 2.60991 1.59844 16.4713 -9.43835 3.58938 36.8022 -9.59811 -0.0 0.0 -0.0 -7.78056 24.0464 -7.88217 -15.5141 -10.6581 75.9398 0.705433 -19.2621 0.11971 1.77229 0.0590643 -0.218645 1.87862 13.1111 17.4903 -0.0 0.0 -0.0 13.1934 20.8341 -26.634 -3.02253 32.819 -60.8764 1.11861 28.9911 -0.289208 45.0922 0.640275 5.57806 1.03156 -7.71928 -9.95516 0.0 0.0 0.0 22.8268 12.1198 -9.51014 -58.4672 -2.03677 8.35441 22.3997 18.6236 -3.08782 -28.4011 0.0 0.0 -0.0 0.0 -0.0 3.74282 -5.17738 -3.55148 -15.1193 -0.321835 -2.29119 35.4081 4.99889 4.51324 39.1661 -0.0 -0.0 0.0 0.0 0.0 
1072.7398506 723.917 -1759.707474 1.95066747852 30.320980885 -2.10270697635 1.61128 0.586299 2.35955 1.61427 0.435011 2.39205 1.63286 -0.0080553 2.43125 1.62481 0.375904 2.40204 0.72936 14.8619 -8.80683 2.22166 33.5422 -8.57108 -0.0 0.0 -0.0 -8.18132 24.5117 -8.28111 -17.5076 -10.5191 75.9596 0.763095 -20.7073 0.139418 2.13563 0.0703355 -0.263686 1.60145 14.1473 16.0145 -0.0 0.0 -0.0 13.0292 18.5656 -26.4078 -1.94591 32.7785 -61.1651 1.1996 30.7197 -0.329532 43.8485 0.564426 5.43817 1.03201 -3.0695 -8.14441 0.0 0.0 0.0 26.9534 6.06005 -9.97571 -56.6366 -1.84796 8.14458 24.0028 20.6564 -3.31089 -28.4361 0.0 0.0 -0.0 0.0 -0.0 1.00034 -6.10201 -4.08186 -11.9761 -0.30495 -1.80929 34.2348 5.03032 4.39938 38.2886 -0.0 -0.0 0.0 0.0 0.0 
1043.22720913 714.264 -1775.44568029 0.329548037894 31.4796871864 -0.537567234522 2.09496 0.369199 1.93198 2.097 0.245538 1.95155 2.1053 -0.0980033 1.96449 2.09998 0.21342 1.95532 0.321337 15.5854 -7.55074 1.67542 33.8585 -6.9665 -0.0 0.0 -0.0 -8.73415 25.0387 -8.8591 -20.7343 -12.7174 77.0683 0.880596 -23.5676 0.18371 4.31766 0.13199 -0.535577 1.48527 12.1506 14.5667 -0.0 0.0 -0.0 13.0143 17.8928 -26.4116 -2.21878 32.5812 -59.6697 1.29594 32.6978 -0.380175 43.5124 0.54445 5.40008 1.46726 -2.50746 -10.8479 0.0 0.0 0.0 32.0459 -1.71125 -12.1222 -43.6252 -0.713359 6.49817 21.7302 23.6655 -3.07193 -28.9162 0.0 0.0 -0.0 0.0 -0.0 -0.0576992 -5.43423 -3.39642 -12.0054 -0.305229 -1.81378 36.6978 5.63576 4.64511 39.345 -0.0 -0.0 0.0 0.0 0.0 
1035.82623817 714.264 -1767.13346128 0.334775947129 32.9118343538 -0.547378358515 2.09496 0.369199 1.93198 2.097 0.245538 1.95155 2.1053 -0.0980033 1.96449 2.09998 0.21342 1.95532 0.321337 15.5854 -7.55074 1.67542 33.8585 -6.9665 -0.0 0.0 -0.0 -8.73415 25.0387 -8.8591 -20.7343 -12.7174 77.0683 0.880596 -23.5676 0.18371 4.31766 0.13199 -0.535577 1.48527 12.1506 14.5667 -0.0 0.0 -0.0 13.0143 17.8928 -26.4116 -2.21878 32.5812 -59.6697 1.29594 32.6978 -0.380175 43.5124 0.54445 5.40008 1.46726 -2.50746 -10.8479 0.0 0.0 0.0 32.0459 -1.71125 -12.1222 -43.6252 -0.713359 6.49817 21.7302 23.6655 -3.07193 -28.9162 0.0 0.0 -0.0 0.0 -0.0 -0.0576992 -5.43423 -3.39642 -12.0054 -0.305229 -1.81378 36.6978 5.63576 4.64511 39.345 -0.0 -0.0 0.0 0.0 0.0 
1028.55109921 714.264 -1758.53676981 0.340457649904 34.3610116657 -0.557634783487 2.09496 0.369199 1.93198 2.097 0.245538 1.95155 2.1053 -0.0980033 1.96449 2.09998 0.21342 1.95532 0.321337 15.5854 -7.55074 1.67542 33.8585 -6.9665 -0.0 0.0 -0.0 -8.73415 25.0387 -8.8591 -20.7343 -12.7174 77.0683 0.880596 -23.5676 0.18371 4.31766 0.13199 -0.535577 1.48527 12.1506 14.5667 -0.0 0.0 -0.0 13.0143 17.8928 -26.4116 -2.21878 32.5812 -59.6697 1.29594 32.6978 -0.380175 43.5124 0.54445 5.40008 1.46726 -2.50746 -10.8479 0.0 0.0 0.0 32.0459 -1.71125 -12.1222 -43.6252 -0.713359 6.49817 21.7302 23.6655 -3.07193 -28.9162 0.0 0.0 -0.0 0.0 -0.0 -0.0576992 -5.43423 -3.39642 -12.0054 -0.305229 -1.81378 36.6978 5.63576 4.64511 39.345 -0.0 -0.0 0.0 0.0 0.0 
1018.80440744 709.902 -1770.70911204 -0.141391786425 33.3627228369 -0.199264813604 2.25754 0.466556 1.86983 2.25942 0.34665 1.89572 2.2708 0.0169135 1.92707 2.26576 0.32099 1.90023 0.247546 14.7136 -7.42764 1.4647 32.2176 -6.84414 -0.0 0.0 -0.0 -8.75804 24.6261 -9.05141 -22.1289 -13.5454 77.181 0.935934 -24.8737 0.206414 5.32856 0.157033 -0.662282 1.78884 12.125 16.5608 -0.0 0.0 -0.0 13.0336 17.3162 -26.4869 -1.40423 32.1076 -59.701 1.34791 33.7299 -0.408644 45.2543 0.65039 5.59618 1.45451 -2.49786 -10.7579 0.0 0.0 0.0 30.3924 -7.03229 -10.7754 -42.7588 -0.651547 6.38011 18.1434 25.0939 -2.62334 -26.1442 0.0 0.0 -0.0 0.0 -0.0 -1.14732 -5.85876 -3.41856 -10.7685 -0.291437 -1.62448 35.0091 6.81449 4.50337 38.5539 -0.0 -0.0 0.0 0.0 0.0 
995.597166281 710.181 -1782.62880727 -0.576878765977 33.5125884767 -0.346914562011 2.32458 0.137902 1.99219 2.32679 0.0108802 1.99693 2.32685 -0.329503 1.9696 2.32143 -0.0143712 1.99691 0.792611 13.3829 -6.39373 1.7925 28.971 -5.90638 -0.0 0.0 -0.0 -7.55293 24.386 -7.44423 -25.1505 -12.9773 75.9653 0.886986 -23.7198 0.186273 6.69215 0.187261 -0.833843 1.63827 9.34794 14.5818 -0.0 0.0 -0.0 12.2307 15.4888 -24.7088 -1.03538 31.3786 -62.3125 1.48858 36.4026 -0.489481 43.3527 0.535037 5.38194 1.71883 1.25647 -11.0543 0.0 0.0 0.0 25.8534 -15.4011 -9.10711 -33.8995 -0.124937 5.12583 14.6808 27.3034 -2.17851 -23.7988 0.0 0.0 -0.0 0.0 -0.0 -2.72077 -4.70087 -1.72195 -10.8442 -0.292399 -1.63607 36.7611 9.5163 4.72341 38.539 -0.0 -0.0 0.0 0.0 0.0 
989.769577942 710.181 -1775.35095427 -0.584409714788 34.6116731935 -0.333469256352 2.32458 0.137902 1.99219 2.32679 0.0108802 1.99693 2.32685 -0.329503 1.9696 2.32143 -0.0143712 1.99691 0.792611 13.3829 -6.39373 1.7925 28.971 -5.90638 -0.0 0.0 -0.0 -7.55293 24.386 -7.44423 -25.1505 -12.9773 75.9653 0.886986 -23.7198 0.186273 6.69215 0.187261 -0.833843 1.63827 9.34794 14.5818 -0.0 0.0 -0.0 12.2307 15.4888 -24.7088 -1.03538 31.3786 -62.3125 1.48858 36.4026 -0.489481 43.3527 0.535037 5.38194 1.71883 1.25647 -11.0543 0.0 0.0 0.0 25.8534 -15.4011 -9.10711 -33.8995 -0.124937 5.12583 14.6808 27.3034 -2.17851 -23.7988 0.0 0.0 -0.0 0.0 -0.0 -2.72077 -4.70087 -1.72195 -10.8442 -0.292399 -1.63607 36.7611 9.5163 4.72341 38.539 -0.0 -0.0 0.0 0.0 0.0 
985.81427507 710.181 -1770.24351701 -0.589872568162 35.3731794501 -0.32394347409 2.32458 0.137902 1.99219 2.32679 0.0108802 1.99693 2.32685 -0.329503 1.9696 2.32143 -0.0143712 1.99691 0.792611 13.3829 -6.39373 1.7925 28.971 -5.90638 -0.0 0.0 -0.0 -7.55293 24.386 -7.44423 -25.1505 -12.9773 75.9653 0.886986 -23.7198 0.186273 6.69215 0.187261 -0.833843 1.63827 9.34794 14.5818 -0.0 0.0 -0.0 12.2307 15.4888 -24.7088 -1.03538 31.3786 -62.3125 1.48858 36.4026 -0.489481 43.3527 0.535037 5.38194 1.71883 1.25647 -11.0543 0.0 0.0 0.0 25.8534 -15.4011 -9.10711 -33.8995 -0.124937 5.12583 14.6808 27.3034 -2.17851 -23.7988 0.0 0.0 -0.0 0.0 -0.0 -2.72077 -4.70087 -1.72195 -10.8442 -0.292399 -1.63607 36.7611 9.5163 4.72341 38.539 -0.0 -0.0 0.0 0.0 0.0 
982.298791527 710.181 -1765.58340385 -0.594988778914 36.061302723 -0.315179779129 2.32458 0.137902 1.99219 2.32679 0.0108802 1.99693 2.32685 -0.329503 1.9696 2.32143 -0.0143712 1.99691 0.792611 13.3829 -6.39373 1.7925 28.971 -5.90638 -0.0 0.0 -0.0 -7.55293 24.386 -7.44423 -25.1505 -12.9773 75.9653 0.886986 -23.7198 0.186273 6.69215 0.187261 -0.833843 1.63827 9.34794 14.5818 -0.0 0.0 -0.0 12.2307 15.4888 -24.7088 -1.03538 31.3786 -62.3125 1.48858 36.4026 -0.489481 43.3527 0.535037 5.38194 1.71883 1.25647 -11.0543 0.0 0.0 0.0 25.8534 -15.4011 -9.10711 -33.8995 -0.124937 5.12583 14.6808 27.3034 -2.17851 -23.7988 0.0 0.0 -0.0 0.0 -0.0 -2.72077 -4.70087 -1.72195 -10.8442 -0.292399 -1.63607 36.7611 9.5163 4.72341 38.539 -0.0 -0.0 0.0 0.0 0.0 
977.286835357 710.181 -1758.73182452 -0.602746401578 37.0620113668 -0.302157301737 2.32458 0.137902 1.99219 2.32679 0.0108802 1.99693 2.32685 -0.329503 1.9696 2.32143 -0.0143712 1.99691 0.792611 13.3829 -6.39373 1.7925 28.971 -5.90638 -0.0 0.0 -0.0 -7.55293 24.386 -7.44423 -25.1505 -12.9773 75.9653 0.886986 -23.7198 0.186273 6.69215 0.187261 -0.833843 1.63827 9.34794 14.5818 -0.0 0.0 -0.0 12.2307 15.4888 -24.7088 -1.03538 31.3786 -62.3125 1.48858 36.4026 -0.489481 43.3527 0.535037 5.38194 1.71883 1.25647 -11.0543 0.0 0.0 0.0 25.8534 -15.4011 -9.10711 -33.8995 -0.124937 5.12583 14.6808 27.3034 -2.17851 -23.7988 0.0 0.0 -0.0 0.0 -0.0 -2.72077 -4.70087 -1.72195 -10.8442 -0.292399 -1.63607 36.7611 9.5163 4.72341 38.539 -0.0 -0.0 0.0 0.0 0.0 
